<svg width="24px" height="24px" viewBox="0 0 24 24" fill="none" xmlns="http://www.w3.org/2000/svg">
<path fill-rule="evenodd" clip-rule="evenodd" d="M16.4735 6.5691C16.1393 4.94112 14.8994 3.60194 13.226 3.15932C12.4228 2.94689 11.5772 2.94689 10.774 3.15932C9.10056 3.60193 7.86065 4.94112 7.52652 6.56909C5.7394 7.03911 4.29056 8.32863 3.62976 10.0283C4.78247 10.4531 6.07377 10.7756 7.43687 10.9957V10.6861C7.43687 10.2931 7.75944 9.97461 8.15736 9.97461C8.55528 9.97461 8.87786 10.2931 8.87786 10.6861V11.1877C10.9249 11.405 13.0751 11.405 15.1221 11.1877V10.6861C15.1221 10.2931 15.4447 9.97461 15.8426 9.97461C16.2406 9.97461 16.5631 10.2931 16.5631 10.6861V10.9957C17.9262 10.7756 19.2175 10.4531 20.3702 10.0283C19.7094 8.32863 18.2606 7.03911 16.4735 6.5691ZM12.8531 4.53377C12.2942 4.38594 11.7058 4.38594 11.1469 4.53377C10.2243 4.77777 9.49537 5.42273 9.13156 6.24797C11.0286 5.91086 12.9714 5.91086 14.8684 6.24797C14.5046 5.42273 13.7757 4.77777 12.8531 4.53377Z" fill="#363853"/>
<path d="M15.1221 12.6182V14.0062C15.1221 14.3991 15.4447 14.7176 15.8426 14.7176C16.2406 14.7176 16.5631 14.3991 16.5631 14.0062V12.4361C18.0628 12.2072 19.4893 11.8618 20.7682 11.4C21.1214 12.9993 21.0702 14.6695 20.6203 16.2477C19.9834 18.4818 18.1227 20.1895 15.8115 20.6356C13.2943 21.1215 10.7057 21.1215 8.18854 20.6356C5.87734 20.1895 4.0166 18.4818 3.37975 16.2477C2.92985 14.6695 2.87864 12.9993 3.23182 11.4C4.51072 11.8618 5.93721 12.2072 7.43687 12.4361V14.0062C7.43687 14.3991 7.75944 14.7176 8.15736 14.7176C8.55528 14.7176 8.87786 14.3991 8.87786 14.0062V12.6182C10.9298 12.8254 13.0702 12.8254 15.1221 12.6182Z" fill="#363853"/>
</svg>
