<svg width="107" height="107" viewBox="0 0 107 107" fill="none" xmlns="http://www.w3.org/2000/svg">
<g clip-path="url(#clip0)">
<rect width="107" height="107" rx="5" fill="black"/>
<path d="M49.7125 33.95V33.275C51.625 32.075 53.575 30.7625 53.575 27.05C53.575 23 51.2125 18.5 41.35 18.5H20.125V50H40.525C50.7625 50 54.2875 46.0625 54.2875 41.1125C54.2875 37.625 52.525 35.6 49.7125 33.95ZM39.925 27.8375C41.6875 27.8375 41.8 29 41.8 29.4875C41.8 29.825 41.6875 31.0625 39.925 31.0625H32.4625V27.8375H39.925ZM40.0375 40.625H32.4625V37.3625H40.0375C41.7625 37.3625 41.8375 38.675 41.8375 38.975C41.8375 39.2375 41.7625 40.625 40.0375 40.625ZM73.4271 51.05C84.6021 51.05 91.6146 44.45 91.6146 34.25C91.6146 24.0125 84.6021 17.45 73.4271 17.45C62.2146 17.45 55.2021 24.0125 55.2021 34.25C55.2021 44.45 62.2146 51.05 73.4271 51.05ZM73.4271 40.4375C70.2771 40.4375 67.4646 38.4125 67.4646 34.25C67.4646 30.05 70.2771 28.0625 73.4271 28.0625C76.5396 28.0625 79.3896 30.05 79.3896 34.25C79.3896 38.4125 76.5396 40.4375 73.4271 40.4375ZM54.55 88L49.225 77.9125C51.5875 76.0375 53.3125 73.1125 53.3125 69.025C53.3125 60.1 48.1 56.5 39.175 56.5H20.125V88H32.4625V80.6875H38.8L42.475 88H54.55ZM32.4625 66.7H38.2375C40.1125 66.7 40.9375 67.675 40.9375 69.1375C40.9375 70.6 40.1125 71.575 38.2375 71.575H32.4625V66.7ZM73.0316 89.05C84.2066 89.05 91.2191 82.45 91.2191 72.25C91.2191 62.0125 84.2066 55.45 73.0316 55.45C61.8191 55.45 54.8066 62.0125 54.8066 72.25C54.8066 82.45 61.8191 89.05 73.0316 89.05ZM73.0316 78.4375C69.8816 78.4375 67.0691 76.4125 67.0691 72.25C67.0691 68.05 69.8816 66.0625 73.0316 66.0625C76.1441 66.0625 78.9941 68.05 78.9941 72.25C78.9941 76.4125 76.1441 78.4375 73.0316 78.4375Z" fill="#F5F5F5"/>
</g>
<defs>
<clipPath id="clip0">
<rect width="107" height="107" rx="5" fill="white"/>
</clipPath>
</defs>
</svg>
