<?xml version="1.0" standalone="no"?>
<!DOCTYPE svg PUBLIC "-//W3C//DTD SVG 20010904//EN"
 "http://www.w3.org/TR/2001/REC-SVG-20010904/DTD/svg10.dtd">
<svg version="1.0" xmlns="http://www.w3.org/2000/svg"
 width="570.000000pt" height="570.000000pt" viewBox="0 0 570.000000 570.000000"
 preserveAspectRatio="xMidYMid meet">
<metadata>
Created by potrace 1.14, written by Peter Selinger 2001-2017
</metadata>
<g transform="translate(0.000000,570.000000) scale(0.100000,-0.100000)"
fill="#000000" stroke="none">
<path d="M1600 5010 l-155 -5 2 -310 c0 -170 2 -314 2 -318 1 -4 376 -7 834
-7 457 0 846 -2 862 -5 136 -25 232 -59 301 -106 57 -39 140 -132 170 -190 53
-106 76 -212 75 -353 -1 -254 -82 -431 -251 -546 -30 -21 -58 -38 -63 -39 -4
0 -22 -7 -40 -14 -29 -12 -100 -32 -152 -43 -57 -12 -202 -14 -936 -15 l-799
-2 0 -779 0 -778 1333 2 1332 3 40 22 c156 84 179 291 45 406 -23 19 -61 40
-85 46 -31 8 -356 11 -1075 11 l-1030 0 2 212 3 212 1020 1 c961 0 1024 -1
1095 -19 236 -58 388 -210 436 -436 15 -71 22 -276 10 -325 -2 -11 -9 -41 -15
-67 -55 -238 -255 -396 -536 -423 -33 -3 -412 -6 -842 -7 l-783 -2 -1 -48 c0
-26 0 -113 0 -193 0 -80 0 -199 0 -266 l1 -120 863 4 c474 2 878 7 897 11 19
4 61 11 92 17 80 14 228 63 300 99 204 104 358 274 447 492 33 81 64 182 61
198 -1 3 3 17 8 31 6 14 13 50 17 80 4 30 11 81 15 114 9 65 5 435 -5 500 -8
54 -11 71 -25 130 -6 28 -14 61 -16 75 -3 14 -8 36 -13 50 -12 33 -18 54 -19
60 0 3 -16 39 -35 81 -132 290 -345 464 -668 548 -42 10 -102 22 -135 26 -32
4 -62 9 -66 11 -4 3 2 24 13 48 21 48 65 209 73 271 3 22 8 51 10 65 16 86 22
370 11 485 -14 151 -31 240 -67 360 -11 39 -20 71 -20 72 3 9 -89 181 -125
235 -119 180 -323 322 -553 387 -185 51 -224 53 -990 55 -393 0 -785 -1 -870
-4z"/>
<path d="M430 4690 l0 -320 320 0 320 0 0 320 0 320 -320 0 -320 0 0 -320z"/>
<path d="M430 2280 l0 -1770 740 0 740 0 0 315 0 315 -460 0 -460 0 0 1205 0
1205 1113 2 1112 3 45 23 c155 82 181 278 54 409 -6 7 -31 22 -55 35 l-44 23
-1392 3 -1393 2 0 -1770z"/>
</g>
</svg>
